<svg width="28" height="26" viewBox="0 0 28 26" fill="none" xmlns="http://www.w3.org/2000/svg">
<path d="M14 0C8.67617 0 4.34486 4.33131 4.34486 9.65517C4.34486 14.979 8.67617 19.3103 14 19.3103C19.3239 19.3103 23.6552 14.979 23.6552 9.65517C23.6552 4.33131 19.3239 0 14 0ZM14 1.93103C18.2589 1.93103 21.7242 5.39628 21.7242 9.65517C21.7242 13.9141 18.2589 17.3793 14 17.3793C9.74113 17.3793 6.27589 13.9141 6.27589 9.65517C6.27589 5.39628 9.74113 1.93103 14 1.93103ZM13.0345 3.86207V5.01103C12.3383 5.26415 11.7619 5.7683 11.4182 6.42455C11.119 7.00231 11.0289 7.66585 11.1633 8.30248C11.2821 8.85637 11.5576 9.36444 11.957 9.76621C12.2206 10.0298 12.5344 10.2432 12.88 10.3909C13.2257 10.5386 13.6042 10.6207 14 10.6207C14.1371 10.6207 14.2665 10.6468 14.3824 10.6941C14.4971 10.7407 14.6013 10.8099 14.6888 10.8974C14.7764 10.985 14.8455 11.0892 14.8922 11.2039C14.9395 11.3197 14.9655 11.4491 14.9655 11.5862C14.9698 11.7764 14.9163 11.9634 14.8122 12.1226C14.7081 12.2819 14.5583 12.4059 14.3824 12.4783C14.2665 12.5257 14.1371 12.5517 14 12.5517C13.862 12.5517 13.7335 12.5257 13.6177 12.4783C13.5031 12.4315 13.399 12.3623 13.3116 12.2746C13.2221 12.1839 13.1516 12.0764 13.104 11.9582C13.0564 11.84 13.0328 11.7136 13.0345 11.5862H11.1035C11.1036 12.3374 11.4011 13.0581 11.9309 13.5906C12.241 13.9068 12.6181 14.1494 13.0345 14.3003V15.4483H14.9655V14.2993C15.4524 14.1248 15.8841 13.8241 16.2166 13.428C16.5491 13.0319 16.7705 12.5545 16.858 12.0448C16.9772 11.3208 16.8118 10.5787 16.3964 9.97379C16.1869 9.66534 15.9209 9.39933 15.6124 9.18979C15.2998 8.97763 14.9489 8.82811 14.5793 8.74952C14.3888 8.70975 14.1947 8.6897 14 8.68966C13.862 8.68966 13.7335 8.66359 13.6177 8.61628C13.503 8.56962 13.3988 8.50047 13.3113 8.41292C13.2237 8.32537 13.1546 8.22117 13.1079 8.10648C13.0588 7.98501 13.0339 7.85514 13.0345 7.72414C13.0345 7.58607 13.0606 7.45766 13.1079 7.34179C13.1546 7.2271 13.2237 7.12291 13.3113 7.03536C13.3988 6.94781 13.503 6.87866 13.6177 6.832C13.7335 6.78469 13.8629 6.75862 14 6.75862C14.5504 6.75862 14.9655 7.17379 14.9655 7.72414H16.8966C16.8968 7.42104 16.8486 7.11986 16.7537 6.832C16.6116 6.41365 16.377 6.0327 16.0674 5.71745C15.7579 5.4022 15.3812 5.16075 14.9655 5.01103V3.86207H13.0345ZM0.482788 17.3793V25.1034H2.41382V19.3103H7.60831C6.7896 18.7629 6.04344 18.1141 5.38762 17.3793H0.482788ZM22.6124 17.3793C21.9566 18.1141 21.2105 18.7629 20.3918 19.3103H25.5862V25.1034H27.5173V17.3793H22.6124ZM4.34486 21.2414V23.1724H23.6552V21.2414H4.34486Z" fill="white"/>
</svg>
