<svg width="73" height="73" viewBox="0 0 73 73" fill="none" xmlns="http://www.w3.org/2000/svg">
<path d="M2.2558 63.9767H69.9303L64.3145 19.0216C64.2727 15.2476 64.3686 13.1576 64.3686 13.1576C63.4933 13.4272 62.1906 13.5309 60.6307 13.5309C60.3668 13.5309 60.0904 13.5264 59.8096 13.5208C59.804 11.1646 59.8536 9.83704 59.8536 9.83704C58.499 11.6191 55.607 12.0726 52.3101 12.0726C48.8869 12.0726 45.0284 11.5842 41.9965 11.5842C37.3191 11.5842 36.3198 14.7141 36.1032 16.0597C35.8867 14.7085 34.8828 11.5921 30.2155 11.5921C27.1837 11.5921 23.3274 12.0804 19.9053 12.0804C16.6051 12.0804 13.7131 11.627 12.3585 9.84268C12.3585 9.84268 12.4081 11.1691 12.4013 13.5197C12.1227 13.5242 11.8453 13.5298 11.5802 13.5298C10.0181 13.5298 8.71872 13.426 7.84346 13.1565C7.84346 13.1565 7.93482 15.154 7.89985 18.7802L2.2558 63.9767ZM60.6307 15.6311C61.2003 15.6311 61.7225 15.6176 62.2019 15.5916C62.1432 21.7196 62.4038 38.46 66.1372 60.1215C65.4455 60.0105 64.7562 59.8853 64.0697 59.7459C64.5118 59.562 64.8626 59.3116 65.0995 58.9744C60.8202 40.8478 59.9596 24.0904 59.831 15.6198C60.1017 15.6255 60.3713 15.6311 60.6307 15.6311ZM42.4364 14.4739C44.7272 14.4739 47.7929 14.7434 51.0356 15.0288C53.3004 15.2284 55.6138 15.4292 57.7241 15.542C57.8538 23.8829 58.6783 40.2488 62.6948 57.9604C62.3914 58.0112 61.9707 58.0506 61.3909 58.0506C59.2479 58.0506 56.1777 57.5058 53.2091 56.978C49.866 56.3847 46.41 55.77 43.5903 55.77C41.4044 55.77 39.6832 56.1806 38.3263 56.8088C38.2744 56.8302 38.2147 56.846 38.1662 56.8686L38.1583 17.3794C38.1977 16.8222 38.5902 14.4739 42.4364 14.4739ZM14.4914 15.542C16.6017 15.4292 18.9128 15.2284 21.1765 15.0288C24.4203 14.7446 27.486 14.4739 29.779 14.4739C33.5 14.4739 33.9974 16.6485 34.0549 17.4256L34.0448 56.8675C33.9557 56.828 33.8496 56.7964 33.756 56.7592C32.4161 56.1625 30.74 55.7723 28.6184 55.7723C25.7986 55.7723 22.3427 56.3881 19.0007 56.9814C16.0298 57.5104 12.9608 58.0551 10.8178 58.0551C10.238 58.0551 9.81617 58.0157 9.51727 57.966C13.5349 40.2522 14.3594 23.8806 14.4914 15.542ZM10.0124 15.5916C10.4929 15.6176 11.014 15.6311 11.5836 15.6311C11.843 15.6311 12.1137 15.6255 12.3844 15.621C12.2547 24.0893 11.393 40.8511 7.11144 58.9812C7.34718 59.3161 7.69457 59.5665 8.13107 59.7493C7.43064 59.8891 6.74149 60.0166 6.07151 60.1226C9.80827 38.46 10.0699 21.7196 10.0124 15.5916Z" fill="white"/>
<path d="M28.4199 16.5096C31.3141 16.5096 32.2683 17.166 32.2785 17.1728L32.5469 16.8209L32.821 16.4769C32.7093 16.3934 31.6378 15.6467 28.4503 15.6467C26.0513 15.6467 23.0894 16.2547 20.4614 16.7893C18.5462 17.1818 16.887 17.5213 15.9373 17.5213L15.8595 18.3988C16.9051 18.3988 18.6127 18.048 20.5854 17.642C23.1796 17.1108 26.1054 16.5096 28.4199 16.5096Z" fill="white"/>
<path d="M28.2688 20.9312C31.2194 20.9312 32.195 21.6136 32.204 21.6203L32.477 21.2571L32.7567 20.8985C32.6428 20.8071 31.551 20.0322 28.3003 20.0322C25.8539 20.0322 22.8334 20.6616 20.1535 21.2222C18.1988 21.6271 16.5069 21.9813 15.5392 21.9813L15.4568 22.896C16.5238 22.896 18.2642 22.5305 20.2775 22.111C22.9213 21.5572 25.9092 20.9312 28.2688 20.9312Z" fill="white"/>
<path d="M28.112 25.5331C31.1224 25.5331 32.1149 26.2403 32.1262 26.2493L32.4048 25.8703L32.6913 25.4992C32.574 25.4045 31.4585 24.598 28.1436 24.598C25.6486 24.598 22.5672 25.2533 19.832 25.8353C17.8367 26.2583 16.1088 26.6271 15.123 26.6271L15.0361 27.5768C16.1257 27.5768 17.9033 27.1979 19.9561 26.7602C22.6552 26.1816 25.7028 25.5331 28.112 25.5331Z" fill="white"/>
<path d="M27.9462 30.3219C31.0175 30.3219 32.0315 31.0618 32.0439 31.0686L32.3281 30.675L32.6191 30.2847C32.5007 30.1888 31.3626 29.3474 27.9812 29.3474C25.4344 29.3474 22.2875 30.0298 19.4959 30.6377C17.4589 31.0788 15.6971 31.46 14.6876 31.46L14.5997 32.4525C15.7095 32.4525 17.5277 32.0566 19.6234 31.5998C22.38 30.9987 25.4885 30.3219 27.9462 30.3219Z" fill="white"/>
<path d="M27.7759 35.3132C30.9115 35.3132 31.948 36.0847 31.957 36.0926L32.2503 35.6809L32.5481 35.2748C32.4251 35.1745 31.2645 34.2992 27.8109 34.2992C25.2122 34.2992 21.9987 35.0098 19.1474 35.6414C17.0653 36.1005 15.2663 36.5009 14.2353 36.5009L14.144 37.5352C15.2775 37.5352 17.1318 37.1224 19.2748 36.6441C22.089 36.0181 25.2629 35.3132 27.7759 35.3132Z" fill="white"/>
<path d="M27.5965 40.5185C30.7998 40.5185 31.8578 41.3216 31.8679 41.3306L32.1657 40.902L32.4714 40.4791C32.3473 40.3742 31.1619 39.4606 27.6349 39.4606C24.9798 39.4606 21.6953 40.2027 18.7831 40.8614C16.6547 41.3419 14.8151 41.7581 13.7627 41.7581L13.6669 42.8353C14.8264 42.8353 16.7235 42.4055 18.9116 41.9093C21.7878 41.2539 25.0328 40.5185 27.5965 40.5185Z" fill="white"/>
<path d="M27.4115 45.9527C30.6847 45.9527 31.7641 46.7942 31.7754 46.8032L32.08 46.3543L32.3901 45.9121C32.2638 45.8016 31.0524 44.8485 27.4476 44.8485C24.735 44.8485 21.3795 45.6245 18.4007 46.3103C16.2272 46.8122 14.3447 47.2487 13.2709 47.2487L13.1694 48.3766C14.3549 48.3766 16.2937 47.9254 18.5315 47.4055C21.4731 46.722 24.7903 45.9527 27.4115 45.9527Z" fill="white"/>
<path d="M27.2142 51.6314C30.5641 51.6314 31.666 52.5078 31.6773 52.5169L31.9886 52.0476L32.3078 51.5875C32.177 51.4724 30.9408 50.4753 27.2559 50.4753C24.4813 50.4753 21.049 51.2852 18.0026 52.0048C15.7795 52.5304 13.8541 52.9816 12.7555 52.9816L12.6506 54.1613C13.8609 54.1613 15.8437 53.6921 18.1334 53.1496C21.1438 52.4356 24.5365 51.6314 27.2142 51.6314Z" fill="white"/>
<path d="M39.9347 17.1728C39.9438 17.166 40.898 16.5096 43.7922 16.5096C46.1089 16.5096 49.0336 17.1108 51.6266 17.642C53.5993 18.048 55.307 18.3988 56.3514 18.3988L56.2736 17.5213C55.3239 17.5213 53.6648 17.1818 51.7496 16.7893C49.1238 16.2547 46.1608 15.6467 43.7617 15.6467C40.5765 15.6467 39.5027 16.3934 39.39 16.4769L39.6652 16.8209L39.9347 17.1728Z" fill="white"/>
<path d="M43.914 20.0334C40.6622 20.0334 39.5693 20.8083 39.4576 20.8997L39.7374 21.2584L40.0092 21.6215C40.0193 21.6159 40.9939 20.9324 43.9456 20.9324C46.3052 20.9324 49.2907 21.5573 51.9346 22.1111C53.9468 22.5318 55.6882 22.8961 56.7552 22.8961L56.6729 21.9813C55.7074 21.9813 54.0144 21.6283 52.0598 21.2223C49.381 20.6628 46.3604 20.0334 43.914 20.0334Z" fill="white"/>
<path d="M44.0697 24.598C40.7547 24.598 39.6392 25.4045 39.5231 25.4992L39.8084 25.8703L40.087 26.2493C40.0972 26.2414 41.092 25.5331 44.1013 25.5331C46.5116 25.5331 49.5558 26.1816 52.256 26.7591C54.3088 27.1967 56.0875 27.5757 57.1748 27.5757L57.0903 26.626C56.1033 26.626 54.3765 26.2572 52.3801 25.8342C49.6483 25.2522 46.5646 24.598 44.0697 24.598Z" fill="white"/>
<path d="M44.2321 29.3474C40.8484 29.3474 39.7103 30.1877 39.5941 30.2847L39.884 30.675L40.1693 31.0686C40.1806 31.0618 41.1935 30.3219 44.2659 30.3219C46.7248 30.3219 49.8344 30.9987 52.5921 31.5987C54.6878 32.0555 56.5037 32.4514 57.6147 32.4514L57.5234 31.46C56.515 31.46 54.7532 31.0788 52.7162 30.6377C49.9258 30.0298 46.7789 29.3474 44.2321 29.3474Z" fill="white"/>
<path d="M44.4002 34.2992C40.9454 34.2992 39.787 35.1745 39.6663 35.2748L39.9641 35.6809L40.254 36.0926C40.2664 36.0847 41.2995 35.3132 44.4374 35.3132C46.9481 35.3132 50.1243 36.0181 52.9373 36.6441C55.0803 37.1224 56.9357 37.5352 58.0704 37.5352L57.9779 36.5009C56.947 36.5009 55.1469 36.1005 53.067 35.6414C50.2157 35.0098 47.0022 34.2992 44.4002 34.2992Z" fill="white"/>
<path d="M44.5761 39.4606C41.0491 39.4606 39.8648 40.3753 39.7396 40.4791L40.0453 40.902L40.3431 41.3306C40.3521 41.3216 41.4101 40.5185 44.6133 40.5185C47.1759 40.5185 50.422 41.2539 53.2993 41.9081C55.4875 42.4044 57.3835 42.8341 58.543 42.8341L58.446 41.757C57.3948 41.757 55.5552 41.3408 53.4302 40.8603C50.5168 40.2027 47.2334 39.4606 44.5761 39.4606Z" fill="white"/>
<path d="M44.7633 44.8474C41.1585 44.8474 39.9483 45.8016 39.8208 45.911L40.1298 46.3532L40.4355 46.8021C40.4457 46.7931 41.5262 45.9516 44.8005 45.9516C47.4207 45.9516 50.739 46.722 53.6794 47.4033C55.9172 47.9232 57.8572 48.3744 59.0415 48.3744L58.9389 47.2465C57.864 47.2465 55.9826 46.81 53.8114 46.3081C50.8314 45.6234 47.4759 44.8474 44.7633 44.8474Z" fill="white"/>
<path d="M44.9551 50.4742C41.2691 50.4742 40.0317 51.4724 39.902 51.5864L40.219 52.0465L40.5303 52.5158C40.5427 52.5067 41.6469 51.6304 44.9934 51.6304C47.6745 51.6304 51.0672 52.4346 54.0753 53.1485C56.3639 53.691 58.3479 54.1603 59.5604 54.1603L59.4532 52.9805C58.3546 52.9805 56.4293 52.5293 54.2073 52.0037C51.1608 51.2841 47.7275 50.4742 44.9551 50.4742Z" fill="white"/>
</svg>
