<svg width="24" height="24" viewBox="0 0 24 24" fill="none" xmlns="http://www.w3.org/2000/svg">
<path d="M2.66671 2.66665V8.49998H8.50004V2.66665H2.66671ZM22.5 13.1666C23.1444 13.1666 23.6667 13.689 23.6667 14.3333V22.5C23.6667 23.1443 23.1444 23.6666 22.5 23.6666H14.3334C13.689 23.6666 13.1667 23.1443 13.1667 22.5V14.3333C13.1667 13.689 13.689 13.1666 14.3334 13.1666H22.5ZM9.66671 13.1666C10.311 13.1666 10.8334 13.689 10.8334 14.3333V22.5C10.8334 23.1443 10.311 23.6666 9.66671 23.6666H1.50004C0.855709 23.6666 0.333374 23.1443 0.333374 22.5V14.3333C0.333374 13.689 0.855709 13.1666 1.50004 13.1666H9.66671ZM21.3334 15.5H15.5V21.3333H21.3334V15.5ZM8.50004 15.5H2.66671V21.3333H8.50004V15.5ZM9.66671 0.333313C10.311 0.333313 10.8334 0.855648 10.8334 1.49998V9.66665C10.8334 10.311 10.311 10.8333 9.66671 10.8333H1.50004C0.855709 10.8333 0.333374 10.311 0.333374 9.66665V1.49998C0.333374 0.855648 0.855709 0.333313 1.50004 0.333313H9.66671ZM22.5 0.333313C23.1444 0.333313 23.6667 0.855648 23.6667 1.49998V9.66665C23.6667 10.311 23.1444 10.8333 22.5 10.8333H14.3334C13.689 10.8333 13.1667 10.311 13.1667 9.66665V1.49998C13.1667 0.855648 13.689 0.333313 14.3334 0.333313H22.5ZM21.3334 2.66665H15.5V8.49998H21.3334V2.66665Z" fill="white"/>
</svg>
