<svg width="24" height="26" viewBox="0 0 24 26" fill="none" xmlns="http://www.w3.org/2000/svg">
<path d="M3.83334 25.8334C1.90035 25.8334 0.333344 24.2664 0.333344 22.3334V9.50002C0.333344 9.14 0.499562 8.80014 0.783746 8.57911L11.2837 0.412443C11.705 0.0847684 12.295 0.0847684 12.7163 0.412443L23.2163 8.57911C23.5005 8.80014 23.6667 9.14 23.6667 9.50002V22.3334C23.6667 24.2664 22.0997 25.8334 20.1667 25.8334H3.83334ZM12 2.81136L2.66668 10.0706V22.3334C2.66668 22.9777 3.18901 23.5 3.83334 23.5L7.33334 23.4997V13C7.33334 12.3986 7.78836 11.9035 8.37289 11.8402L8.50001 11.8334H15.5C16.1443 11.8334 16.6667 12.3557 16.6667 13L16.6663 23.4997L20.1667 23.5C20.811 23.5 21.3333 22.9777 21.3333 22.3334V10.0706L12 2.81136ZM14.3333 14.1667H9.66668L9.66634 23.4997H14.3333V14.1667Z" fill="white"/>
</svg>
