<svg width="24" height="24" viewBox="0 0 24 24" fill="none" xmlns="http://www.w3.org/2000/svg">
<path d="M10.25 0.333313C15.7268 0.333313 20.1666 4.77316 20.1666 10.25C20.1666 12.568 19.3714 14.7002 18.0387 16.3887L23.3249 21.675C23.7806 22.1306 23.7806 22.8693 23.3249 23.3249C22.8693 23.7806 22.1306 23.7806 21.675 23.3249L16.3887 18.0387C14.7002 19.3714 12.568 20.1666 10.25 20.1666C4.77316 20.1666 0.333313 15.7268 0.333313 10.25C0.333313 4.77316 4.77316 0.333313 10.25 0.333313ZM10.25 2.66665C6.06182 2.66665 2.66665 6.06182 2.66665 10.25C2.66665 14.4381 6.06182 17.8333 10.25 17.8333C12.3147 17.8333 14.1866 17.0082 15.5541 15.6697L15.6084 15.6084C15.629 15.5877 15.6502 15.568 15.6719 15.5493C17.0094 14.1839 17.8333 12.3131 17.8333 10.25C17.8333 6.06182 14.4381 2.66665 10.25 2.66665Z" fill="white"/>
</svg>
